<?xml version="1.0" encoding="utf-8"?>
<svg viewBox="0 0 500 500" xmlns="http://www.w3.org/2000/svg" xmlns:bx="https://boxy-svg.com">
  <defs>
    <pattern id="pattern-1" x="0" y="0" width="20" height="20" patternUnits="userSpaceOnUse" viewBox="0 0 100 100">
      <path d="M 0 0 L 50 0 L 50 100 L 0 100 Z" style="fill: black;"/>
    </pattern>
  </defs>
  <path d="M 72.75 246.745 L 94.864 201.846 L 150.485 152.926 L 222.86 144.885 L 281.161 171.02 L 287.192 166.329 L 306.626 161.638 L 320.029 170.35 L 333.432 159.628 L 354.876 158.288 L 372.299 170.35 L 371.629 188.444 C 371.629 188.444 403.125 216.589 403.125 217.259 C 403.125 217.929 413.848 240.714 413.848 240.714 L 416.528 258.137 L 437.972 268.86 L 417.868 308.397 L 384.362 324.481 L 342.813 327.831 L 351.525 339.894 L 319.359 347.935 L 265.748 336.543 L 189.353 347.265 L 172.6 348.605 C 172.6 348.605 103.576 337.213 103.576 336.543 C 103.576 335.873 70.739 297.005 70.739 295.665 C 70.739 294.325 72.75 248.756 72.75 246.745 Z" style="stroke: rgb(0, 0, 0); fill: none; stroke-width: 1;" bx:origin="0.5 0.5"/>
  <path d="M 77.401 244.654 L 117.848 229.241 L 136.35 234.602 L 147.214 269.661 C 147.214 269.661 146.278 282.182 145.611 282.182 C 144.945 282.182 128.294 304.296 128.294 304.296 L 171.665 347.855 L 192.405 345.174 L 206.608 315.688 L 214.261 282.182 L 208.011 268.109 C 208.011 268.109 184.802 264.088 184.156 263.418 C 183.509 262.748 151.692 277.104 151.671 277.774" style="stroke: black; fill: none;" transform="matrix(0.999626, -0.027361, 0.027361, 0.999626, -7.840666, 4.075638)" bx:origin="0.494 0.5"/>
  <path d="M 173.022 347.936 C 173.022 347.936 166.249 320.755 166.249 320.057 C 166.249 319.359 177.333 292.877 177.949 292.877 C 178.564 292.877 198.723 279.581 198.723 279.581 L 211.818 291.483 L 207.508 319.361 L 194.576 347.239 L 173.022 347.936 Z" style="stroke: black; fill: rgb(0, 0, 0);" bx:origin="0.5 0.5"/>
  <path d="M 73.42 246.745 L 114.968 229.992 L 137.753 235.353 L 165.898 270.2 L 147.805 282.932 L 131.051 303.707 C 131.051 303.707 177.29 346.595 177.29 347.265 C 177.29 347.935 173.27 348.605 173.27 348.605 L 103.576 335.873 L 70.739 297.005 L 73.42 246.745 Z" style="stroke: black; fill: rgb(0, 0, 0);" bx:origin="0.5 0.5"/>
  <path d="M 92.854 37.903" style="stroke: black; fill: none;"/>
  <path d="M 87.493 215.919 C 87.493 215.919 78.111 208.14 78.781 208.14 C 79.451 208.14 81.461 197.371 81.461 197.371 L 97.545 182.413 L 108.267 190.789 C 108.267 190.789 97.545 201.559 96.874 201.559 C 96.203 201.559 88.833 214.124 87.493 215.919 Z" style="stroke: black; fill: rgb(0, 0, 0);" bx:origin="0.5 0.5"/>
  <path d="M 114.298 184.698 L 115.588 230.699 L 137.455 241.384 L 150.485 152.926 L 116.879 232.137" style="stroke: black; fill: none;" bx:origin="0.5 0.5"/>
  <path d="M 222.754 145.555 C 222.754 145.555 137.752 235.353 137.752 236.023 C 137.752 236.693 226.21 259.478 226.21 259.478 L 222.754 145.555 Z" style="stroke: black; fill: none;" bx:origin="0.5 0.5"/>
  <path d="M 279.151 169.919 L 279.151 169.919 Z" style="stroke: black; fill: none;"/>
  <path d="M 257.707 29.191" style="stroke: black; fill: none;"/>
  <path d="M 281.831 171.69 L 288.533 166.329 L 307.296 161.638 L 320.699 169.68 L 310.647 185.093 L 289.203 193.135 L 278.481 185.763 L 281.831 171.69 Z" style="stroke: black; fill: rgb(0, 0, 0);" bx:origin="0.5 0.5"/>
  <path d="M -282.421 -0.965" style="stroke: black; fill: none;"/>
  <path d="M 321.369 169.01 C 321.369 169.01 332.761 159.628 333.432 159.628 C 334.103 159.628 353.536 158.288 353.536 158.288 L 372.969 171.02 L 371.629 189.784 L 321.369 169.01 Z" style="stroke: black; fill: rgb(0, 0, 0);" bx:origin="0.5 0.5"/>
  <path d="M 285.852 219.509" style="stroke: black; fill: none;"/>
  <path d="M 222.86 145.555 L 225.54 257.467 L 231.571 311.078 L 266.418 336.543 L 320.699 348.605 C 320.699 348.605 352.195 341.234 352.195 339.894 C 352.195 338.554 342.813 327.831 342.813 327.831 C 342.813 327.831 315.338 288.964 314.668 288.964 C 313.998 288.964 277.14 268.189 277.14 268.189 L 222.86 145.555 Z" style="stroke: black; fill: rgb(0, 0, 0);" bx:origin="0.5 0.5"/>
  <path d="M 275.8 155.176" style="stroke: black; fill: none;"/>
  <path d="M 281.161 171.02 L 262.397 242.054" style="stroke: black; fill: none;" bx:origin="0.5 0.5"/>
  <path d="M 372.299 189.114 L 314.668 289.634" style="stroke: black; fill: none;" bx:origin="0.5 0.5"/>
  <path d="M 315.338 289.634 L 348.845 256.797 L 387.712 243.395 L 402.455 216.589" style="stroke: black; fill: none;" bx:origin="0.5 0.5"/>
  <path d="M 349.515 255.457 L 387.712 242.724 L 400.445 268.86 L 389.723 285.613 L 362.917 295.665 C 362.917 295.665 348.175 282.262 348.175 280.252 C 348.175 278.242 350.185 254.787 349.515 255.457 Z" style="stroke: black; fill: rgb(0, 0, 0);" bx:origin="0.5 0.5"/>
  <path d="M 387.712 243.395 L 413.848 241.384" style="stroke: black; fill: none;" bx:origin="0.5 0.5"/>
  <path d="M 437.972 269.53 L 425.91 273.551 L 431.271 280.252 L 437.972 269.53 Z" style="stroke: black; fill: rgb(0, 0, 0);" bx:origin="0.5 0.5"/>
  <path d="M -113.547 23.16" style="stroke: black; fill: none;"/>
</svg>